<svg width="201" height="127" viewBox="0 0 201 127" fill="none" xmlns="http://www.w3.org/2000/svg">
<path d="M100.017 65.7194C92.1576 65.7194 85.8701 72.1624 85.8701 80.0373C85.8701 87.9121 92.1576 94.3552 100.017 94.3552C107.876 94.3552 114.164 87.9121 114.164 80.0373C114.164 72.1624 107.734 65.7194 100.017 65.7194Z" fill="#4EACEA"/>
<path d="M197.474 40.2334C194.616 37.9425 190.472 38.5152 188.185 41.3788L174.467 59.2762C167.608 54.4081 159.32 49.1105 149.603 44.6719L158.605 21.1905C159.892 17.7542 158.177 14.0316 154.89 12.5998C151.461 11.3112 147.745 13.0293 146.316 16.3224L137.314 39.5175C127.882 36.2244 117.451 33.7903 106.305 33.0744C106.305 32.7881 106.447 32.5017 106.447 32.2153V6.44307C106.59 3.00676 103.589 0 100.017 0C99.0167 0 98.0165 0.286359 97.1591 0.715896C95.0156 1.71815 93.4437 4.00902 93.4437 6.58625V32.3585C93.4437 32.6449 93.4437 32.9312 93.5866 33.2176C81.726 33.9335 70.7228 36.6539 60.577 40.3766L51.2886 16.4656C50.0026 13.0293 46.1443 11.4543 42.8576 12.743C39.4281 14.0316 37.8562 17.8974 39.1423 21.3337L48.4307 45.2446C48.4307 45.3878 48.5736 45.531 48.5736 45.531C39.571 49.9696 31.5686 54.9808 25.1382 59.5626L11.8486 41.6652C9.70516 38.8016 5.5611 38.0857 2.70313 40.2334C-0.15484 42.3811 -0.869333 46.5333 1.27415 49.3968L14.7066 67.5806C9.70516 71.7328 6.84719 74.8828 6.41849 75.3123C3.98922 77.8895 3.98922 82.0417 6.41849 84.6189C8.13328 86.3371 47.4304 127 100.017 127C152.604 127 191.901 86.3371 193.616 84.6189C196.045 82.0417 196.045 77.8895 193.616 75.3123C193.187 74.8828 190.186 71.7328 184.899 67.2943L198.617 49.3968C200.903 46.5333 200.332 42.3811 197.474 40.2334ZM72.2947 109.246C48.4307 101.944 29.711 87.4825 21.137 79.894C29.5681 72.4487 48.4307 57.8444 72.2947 50.5423C64.5782 57.9876 59.8625 68.2965 59.8625 79.894C59.7197 91.4915 64.5782 101.944 72.2947 109.246ZM100.017 107.098C85.2985 107.098 73.1521 94.9279 73.1521 80.0372C73.1521 65.1466 85.2985 52.9763 100.017 52.9763C114.736 52.9763 126.882 65.1466 126.882 80.0372C126.882 94.9279 114.736 107.098 100.017 107.098ZM127.739 109.246C135.456 101.8 140.172 91.4915 140.172 79.894C140.172 68.4397 135.313 57.9876 127.739 50.5423C151.603 57.8444 170.323 72.3055 178.897 79.894C170.323 87.4825 151.603 102.087 127.739 109.246Z" fill="#4EACEA"/>
</svg>
